#define picture_width 16
#define picture_height 16
#define picture_x_hot 8
#define picture_y_hot 8
static char picture_bits[] = {
    0x80, 0x00, 0xc0, 0x01, 0xe0, 0x03, 0x80, 0x00, 0x80, 0x00, 0xfe, 0x7f, 
    0xfe, 0x7f, 0x00, 0x00, 0x00, 0x00, 0xfe, 0x7f, 0xfe, 0x7f, 0x80, 0x00, 
    0x80, 0x00, 0xe0, 0x03, 0xc0, 0x01, 0x80, 0x00, 
};
