#define picture_width 16
#define picture_height 16
#define picture_x_hot 8
#define picture_y_hot 8
static char picture_bits[] = {
    0xc0, 0x01, 0xe0, 0x03, 0xf0, 0x07, 0xf0, 0x07, 0xff, 0xff, 0xff, 0xff, 
    0xff, 0xff, 0xff, 0xff, 0xff, 0xff, 0xff, 0xff, 0xff, 0xff, 0xff, 0xff, 
    0xf0, 0x07, 0xf0, 0x07, 0xe0, 0x03, 0xc0, 0x01, 
};
